<?xml version="1.0" encoding="UTF-8"?>
<svg id="Layer_1" xmlns="http://www.w3.org/2000/svg" version="1.1" viewBox="0 0 300 300">
  <!-- Generator: Adobe Illustrator 30.1.0, SVG Export Plug-In . SVG Version: 2.1.1 Build 136)  -->
  <defs>
    <style>
      .st0 {
        fill: #f99e47;
      }
    </style>
  </defs>
  <path class="st0" d="M293.02,147.21v5.59c-1.91,6.16-6.52,10.94-12.77,11.59-6.71.69-12.83-2.79-15.43-9.52l-107.52-.02.09-9.69h107.44c2.57-6.75,8.72-10.28,15.43-9.58,6.27.65,10.9,5.46,12.77,11.63Z"/>
  <path class="st0" d="M157.39,130.59l-.08-9.68h72.56c2.43,0,4.94-1.9,4.94-4.44l.02-25.53c-7.01-2.69-10.71-9.36-9.39-16.48,1.25-6.75,7.31-11.96,14.68-11.76,6.62.18,12.65,4.98,13.88,12.03,1.17,6.69-2.47,13.62-9.45,16.22l-.04,24.99c-.01,8.16-6.4,14.65-14.65,14.65h-72.47Z"/>
  <path class="st0" d="M234.8,209.12l.05-25.05c0-2.75-2.15-4.97-4.99-4.97h-72.54s-.01-9.68-.01-9.68h72.58c7.88,0,14.54,6.16,14.58,14.09l.11,25.57c6.8,2.53,10.44,9.23,9.51,15.73-1.02,7.14-6.93,12.1-13.44,12.49-7.29.44-13.41-4.41-14.99-10.85-1.78-7.25,1.62-14.44,9.16-17.32Z"/>
  <path class="st0" d="M186.32,252.74l.03-30.11c0-2.8-2.44-4.71-5.03-4.71h-23.99s-.08-9.72-.08-9.72l24.03-.02c8.48,0,14.79,6.69,14.78,15.01l-.03,29.48c6.79,2.55,10.52,9.17,9.54,15.86s-6.87,12.03-13.5,12.4c-7.16.4-13.34-4.34-14.93-10.86-1.74-7.14,1.52-14.35,9.17-17.32Z"/>
  <path class="st0" d="M157.34,91.84l-.08-9.67,24.28-.03c2.51-.2,4.81-2,4.81-4.76v-30.04c-7.02-2.77-10.7-9.44-9.41-16.49,1.22-6.66,7.09-11.71,14.09-11.8,6.83-.09,12.98,4.67,14.39,11.57,1.39,6.81-2.07,13.95-9.35,16.65v29.54c-.01,8.35-6.3,15-14.77,15.01h-23.96Z"/>
  <path class="st0" d="M205.95,111.22l-48.68.02.06-9.74,48.49.02c2.79,0,4.63,2.37,4.72,4.65s-1.53,5.05-4.58,5.05Z"/>
  <path class="st0" d="M205.83,198.49l-48.5.02.02-9.71h48.4c2.76,0,4.65,2.18,4.79,4.52.15,2.51-1.73,5.16-4.71,5.16Z"/>
  <g>
    <path class="st0" d="M6.98,157.82v-16.2c.31-.77.62-1.94.6-2.78-.15-4.26,2.38-8.58,6.77-9.32l19.28-3.26c3.08-14.4,8.49-27.58,16.63-40l-10.81-15.12c-2.53-3.53-2.62-7.95.29-11.4,5.47-6.47,11.36-12.35,17.87-17.81,3.14-2.63,7.53-2.69,10.82-.33l15.39,11.02c12.18-7.89,25.37-13.57,39.98-16.58l3.21-19.09c.6-3.59,3.79-6.64,7.41-6.92l7.83-.62c2.84-.22,5.32,2.05,5.32,4.97v38.38c.01,2.79-2,5.04-4.63,5.18-49.49,2.58-87.65,43.55-87.5,92.35.15,48.59,38.23,89.21,87.53,91.78,2.26.12,4.6,2.11,4.6,4.71v38.86c.01,2.9-2.49,5.19-5.31,4.96l-7.69-.63c-4.04-.33-7.02-3.53-7.66-7.39l-3.09-18.6c-14.55-3.04-27.6-8.53-39.95-16.59l-15.42,11c-3.7,2.64-8.15,2.11-11.48-.82-6.29-5.53-12.16-11.17-17.48-17.67-2.58-3.15-2.54-7.47-.24-10.69l11-15.42c-8-12.38-13.51-25.25-16.55-39.95l-19.34-3.38c-4.61-.8-7.01-5.43-6.79-9.85.05-1.04-.22-2.18-.58-2.79Z"/>
    <path class="st0" d="M147.58,217.68c0,3.16-2.15,5.04-4.73,4.87-38.45-2.47-67.9-34.38-68.04-72.28-.14-38.13,29.39-70.31,68.04-72.81,2.53-.16,4.73,1.79,4.73,4.59v135.63Z"/>
  </g>
</svg>